<svg xmlns="http://www.w3.org/2000/svg" width="96" height="96" viewBox="0 0 96 96">
<g>
<path d="M 52.76 79.53 C50.71,81.44 48.69,82.97 48.26,82.94 C47.23,82.85 20.22,57.55 15.65,52.38 C13.64,50.11 12.00,47.64 12.00,46.89 C12.00,46.14 14.73,48.55 18.06,52.24 C22.39,57.04 24.73,58.89 26.27,58.73 C27.84,58.56 28.97,59.50 30.44,62.20 C31.55,64.23 33.48,66.16 34.73,66.47 C35.98,66.78 37.00,67.54 37.00,68.16 C37.00,68.78 39.06,71.70 41.58,74.64 C46.59,80.50 49.44,81.38 52.50,78.00 C53.50,76.90 54.80,76.01 55.40,76.03 C56.01,76.04 54.82,77.62 52.76,79.53 ZM 60.87 71.83 C55.89,76.17 55.24,75.80 59.19,70.88 C63.47,65.54 69.50,59.92 79.98,51.49 C83.34,48.79 65.44,67.83 60.87,71.83 Z" fill="rgb(192,41,54)"/>
<path d="M 65.31 68.13 C63.94,69.28 62.62,70.36 61.44,71.32 C66.75,66.44 83.21,48.89 79.98,51.49 C78.88,52.38 77.83,53.23 76.82,54.06 C83.37,47.91 88.00,40.37 88.00,35.85 C88.00,33.88 88.50,33.00 89.63,33.00 C90.97,33.00 91.14,33.71 90.60,37.10 C90.24,39.36 89.21,42.63 88.32,44.35 C86.15,48.55 75.40,59.66 65.31,68.13 ZM 61.15 68.56 C64.68,64.50 69.02,60.01 69.84,59.97 C69.85,59.97 69.86,59.97 69.88,59.96 C66.28,63.16 63.47,65.93 61.15,68.56 ZM 56.82 74.84 C56.66,74.95 56.55,75.00 56.50,75.00 C55.97,75.00 57.45,72.96 59.60,70.38 C59.46,70.55 59.33,70.71 59.19,70.88 C57.00,73.62 56.22,74.95 56.82,74.84 Z" fill="rgb(190,60,73)"/>
<path d="M 60.87 71.83 C61.04,71.68 61.23,71.51 61.44,71.32 C62.62,70.36 63.94,69.28 65.31,68.13 C66.10,67.47 66.89,66.79 67.68,66.10 C64.86,68.69 61.70,71.56 58.15,74.75 C56.47,76.26 54.85,77.68 53.43,78.90 C55.06,77.28 55.94,76.04 55.40,76.03 C54.80,76.01 53.50,76.90 52.50,78.00 C49.44,81.38 46.59,80.50 41.58,74.64 C39.06,71.70 37.00,68.78 37.00,68.16 C37.00,67.54 35.98,66.78 34.73,66.47 C33.48,66.16 31.55,64.23 30.44,62.20 C28.97,59.50 27.84,58.56 26.27,58.73 C25.96,58.76 25.61,58.71 25.21,58.56 C25.57,58.57 25.87,58.40 26.16,58.10 C27.29,56.92 27.21,56.81 25.61,57.38 C24.03,57.94 23.92,57.80 24.95,56.56 C26.01,55.28 26.53,55.41 28.83,57.54 C30.29,58.89 32.17,60.00 33.01,60.00 C33.85,60.00 36.19,61.12 38.21,62.50 C41.89,64.99 47.37,65.83 48.46,64.07 C48.78,63.55 51.61,62.60 54.77,61.95 C62.14,60.43 67.60,57.64 68.28,55.05 C68.64,53.67 69.64,53.00 71.31,53.00 C73.35,53.00 73.71,53.38 73.27,55.08 C72.97,56.23 71.66,57.65 70.36,58.25 C69.06,58.84 68.00,59.71 68.00,60.20 C68.00,60.67 68.33,60.75 68.91,60.53 C67.25,61.86 63.94,65.34 61.15,68.56 C60.61,69.17 60.09,69.78 59.60,70.38 C57.45,72.96 55.97,75.00 56.50,75.00 C56.55,75.00 56.66,74.95 56.82,74.84 C57.30,74.76 58.66,73.76 60.87,71.83 ZM 12.02 47.05 C12.21,47.95 13.77,50.26 15.65,52.38 C12.66,49.01 11.61,47.24 12.02,47.05 ZM 86.21 41.93 C87.25,39.60 88.00,37.11 88.00,35.85 C88.00,37.53 87.36,39.63 86.21,41.93 ZM 82.27 48.08 C80.69,50.12 78.85,52.15 76.82,54.06 C78.74,52.14 80.67,50.04 82.27,48.08 ZM 21.76 56.08 C20.72,55.11 19.50,53.84 18.06,52.24 C17.46,51.57 16.87,50.94 16.32,50.37 C16.96,51.01 17.65,51.73 18.41,52.55 C19.77,54.03 20.87,55.19 21.76,56.08 ZM 32.75 69.07 C40.36,76.21 47.66,82.83 48.26,82.94 C48.25,82.94 48.24,82.94 48.23,82.94 C47.72,82.89 40.39,76.24 32.75,69.07 ZM 89.70 40.80 C90.09,39.53 90.42,38.21 90.60,37.12 C90.59,37.16 90.58,37.20 90.58,37.25 C90.38,38.47 90.11,39.63 89.70,40.80 ZM 90.31 33.11 C90.13,33.03 89.90,33.00 89.63,33.00 C89.90,33.00 90.13,33.03 90.31,33.11 Z" fill="rgb(203,31,45)"/>
<path d="M 86.21 41.93 C85.24,43.88 83.89,45.98 82.27,48.08 C80.67,50.04 78.74,52.14 76.82,54.06 L 76.82 54.06 C74.22,56.20 71.92,58.15 69.88,59.96 C69.86,59.97 69.85,59.97 69.84,59.97 C69.67,59.98 69.34,60.18 68.91,60.53 C68.33,60.75 68.00,60.67 68.00,60.20 C68.00,59.71 69.06,58.84 70.36,58.25 C71.66,57.65 72.97,56.23 73.27,55.08 C73.71,53.38 73.35,53.00 71.31,53.00 C69.64,53.00 68.64,53.67 68.28,55.05 C67.60,57.64 62.14,60.43 54.77,61.95 C51.61,62.60 48.78,63.55 48.46,64.07 C47.37,65.83 41.89,64.99 38.21,62.50 C36.19,61.12 33.85,60.00 33.01,60.00 C32.17,60.00 30.29,58.89 28.83,57.54 C26.53,55.41 26.01,55.28 24.95,56.56 C23.92,57.80 24.03,57.94 25.61,57.38 C27.21,56.81 27.29,56.92 26.16,58.10 C25.87,58.40 25.57,58.57 25.21,58.56 C24.32,58.24 23.21,57.44 21.76,56.08 C20.87,55.19 19.77,54.03 18.41,52.55 C17.65,51.73 16.96,51.01 16.32,50.37 C14.14,48.10 12.47,46.67 12.08,46.76 C11.79,45.67 12.05,45.00 12.95,45.00 C14.29,45.00 19.21,47.16 21.00,48.54 C21.83,49.17 25.65,50.96 29.50,52.52 C34.93,54.71 38.19,55.36 44.00,55.40 C50.77,55.46 52.20,55.10 58.70,51.73 C62.66,49.68 66.41,48.00 67.04,48.00 C67.67,48.00 69.47,47.09 71.03,45.98 C74.42,43.57 81.52,40.86 85.00,40.65 C85.98,40.59 86.59,40.44 87.00,39.99 C86.76,40.63 86.50,41.28 86.21,41.93 ZM 88.03 35.14 C88.01,35.36 88.00,35.60 88.00,35.85 C88.00,36.31 87.90,36.93 87.72,37.65 C87.75,37.38 87.78,37.08 87.81,36.75 C87.86,36.13 87.93,35.60 88.03,35.14 ZM 90.31 33.11 C90.29,33.10 90.28,33.09 90.26,33.09 C90.13,33.04 89.98,33.01 89.81,33.00 C89.76,33.00 89.71,33.00 89.66,33.00 C89.67,33.00 89.68,33.00 89.69,33.00 C90.09,33.00 90.39,33.08 90.58,33.29 C90.50,33.21 90.41,33.15 90.31,33.11 Z" fill="rgb(209,40,54)"/>
<path d="M 12.02 47.05 C11.81,47.15 11.99,47.68 12.65,48.65 C10.73,46.13 9.48,43.92 9.70,43.33 C10.28,41.84 15.57,41.50 16.44,42.91 C16.75,43.40 20.94,45.27 25.75,47.06 C41.09,52.75 52.78,51.48 68.54,42.39 C75.08,38.62 84.80,34.28 88.79,33.24 C88.35,33.55 88.10,34.17 88.03,35.14 C87.93,35.60 87.86,36.13 87.81,36.75 C87.78,37.08 87.75,37.38 87.72,37.65 C87.55,38.36 87.30,39.16 87.00,39.99 C86.59,40.44 85.98,40.59 85.00,40.65 C81.52,40.86 74.42,43.57 71.03,45.98 C69.47,47.09 67.67,48.00 67.04,48.00 C66.41,48.00 62.66,49.68 58.70,51.73 C52.20,55.10 50.77,55.46 44.00,55.40 C38.19,55.36 34.93,54.71 29.50,52.52 C25.65,50.96 21.83,49.17 21.00,48.54 C19.21,47.16 14.29,45.00 12.95,45.00 C12.05,45.00 11.79,45.67 12.08,46.76 C12.03,46.77 12.00,46.82 12.00,46.89 C12.00,46.94 12.01,46.99 12.02,47.05 ZM 32.75 69.07 L 32.76 69.07 C40.39,76.24 47.72,82.89 48.23,82.94 C47.49,82.88 38.87,74.97 30.39,66.85 C31.18,67.59 31.97,68.33 32.75,69.07 ZM 90.69 33.43 C90.65,33.38 90.62,33.33 90.58,33.29 C90.43,33.12 90.21,33.04 89.93,33.01 C90.01,33.00 90.08,33.00 90.15,33.00 C90.39,33.00 90.57,33.15 90.69,33.43 ZM 90.63 36.90 C90.72,36.32 90.79,35.83 90.83,35.40 C90.80,35.86 90.73,36.36 90.63,36.90 Z" fill="rgb(217,47,65)"/>
<path d="M 89.95 33.01 C89.94,33.01 89.94,33.01 89.93,33.01 C89.86,33.00 89.77,33.00 89.69,33.00 C89.68,33.00 89.67,33.00 89.66,33.00 C89.65,33.00 89.64,33.00 89.63,33.00 C89.30,33.00 89.02,33.08 88.79,33.24 C84.80,34.28 75.08,38.62 68.54,42.39 C52.78,51.48 41.09,52.75 25.75,47.06 C20.94,45.27 16.75,43.40 16.44,42.91 C15.57,41.50 10.28,41.84 9.70,43.33 C9.48,43.92 10.73,46.13 12.65,48.65 C12.85,48.95 13.10,49.29 13.39,49.67 C5.98,40.74 6.22,36.64 14.10,39.51 C27.86,44.52 32.98,46.11 37.97,46.92 C48.86,48.67 58.63,45.18 71.64,34.87 C77.71,30.06 80.29,29.05 81.50,31.00 C81.84,31.55 83.55,32.01 85.31,32.02 C87.64,32.03 89.12,32.28 89.95,33.01 ZM 89.70 40.80 C90.11,39.63 90.38,38.47 90.58,37.25 C90.58,37.21 90.59,37.16 90.60,37.12 L 90.60 37.12 L 90.60 37.10 C90.61,37.04 90.62,36.97 90.63,36.90 C90.70,36.53 90.75,36.16 90.79,35.82 C90.76,36.36 90.68,36.96 90.56,37.64 C90.33,38.88 90.01,40.07 89.55,41.28 C89.60,41.12 89.65,40.96 89.70,40.80 ZM 30.22 66.68 C30.28,66.74 30.33,66.79 30.39,66.85 C31.37,67.79 32.36,68.73 33.33,69.65 C32.30,68.67 31.26,67.68 30.22,66.68 Z" fill="rgb(229,56,80)"/>
<path d="M 89.95 33.01 C89.12,32.28 87.64,32.03 85.31,32.02 C84.77,32.01 84.23,31.97 83.74,31.89 C84.24,31.60 84.53,30.93 84.29,30.01 C83.46,26.84 86.87,26.20 89.17,29.09 C89.99,30.12 90.47,31.60 90.63,33.32 C90.52,33.11 90.36,33.00 90.15,33.00 C90.09,33.00 90.02,33.00 89.95,33.01 Z" fill="rgb(214,85,109)"/>
<path d="M 17.66 24.75 C11.31,29.58 7.08,31.96 7.68,30.38 C7.99,29.59 9.30,28.38 10.61,27.70 C11.91,27.01 15.49,24.02 18.55,21.04 C23.77,15.97 24.44,15.62 28.91,15.69 C36.55,15.81 42.34,19.32 48.64,27.64 C50.67,30.33 50.90,30.39 53.52,28.99 C55.03,28.18 58.09,24.94 60.31,21.79 C63.88,16.73 64.83,16.00 68.61,15.43 C70.96,15.08 73.47,15.03 74.19,15.32 C74.91,15.61 74.15,15.88 72.50,15.92 C70.31,15.98 68.73,16.97 66.64,19.58 C63.04,24.09 52.39,32.00 49.91,32.00 C48.88,32.00 45.89,29.92 43.27,27.38 C37.29,21.59 33.69,19.94 29.59,21.12 C27.90,21.60 25.33,22.00 23.89,22.00 C22.45,22.00 19.65,23.24 17.66,24.75 Z" fill="rgb(251,140,187)"/>
<path d="M 85.05 27.45 C84.33,27.82 83.95,28.70 84.29,30.01 C84.53,30.93 84.24,31.60 83.74,31.89 C82.63,31.72 81.74,31.38 81.50,31.00 C80.29,29.05 77.71,30.06 71.64,34.87 C58.63,45.18 48.86,48.67 37.97,46.92 C32.98,46.11 27.86,44.52 14.10,39.51 C9.68,37.90 7.66,38.48 8.05,40.88 C7.14,38.48 7.01,36.59 7.89,35.71 C8.61,34.99 11.64,35.48 17.72,37.31 C31.83,41.54 42.22,43.97 46.29,43.98 C51.72,44.01 57.58,40.65 64.78,33.39 C72.18,25.94 77.38,23.71 81.33,26.29 C82.42,27.01 83.95,27.46 85.05,27.45 ZM 90.68 33.42 C90.67,33.38 90.65,33.35 90.63,33.32 C90.47,31.60 89.99,30.12 89.17,29.09 C88.30,28.00 87.27,27.41 86.37,27.27 C88.58,27.21 90.32,29.85 90.68,33.42 Z" fill="rgb(241,67,99)"/>
<path d="M 17.66 24.75 C19.65,23.24 22.45,22.00 23.89,22.00 C25.33,22.00 27.90,21.60 29.59,21.12 C33.69,19.94 37.29,21.59 43.27,27.38 C45.89,29.92 48.88,32.00 49.91,32.00 C52.39,32.00 63.04,24.09 66.64,19.58 C68.73,16.97 70.31,15.98 72.50,15.92 C73.63,15.89 74.34,15.75 74.45,15.58 C75.25,15.78 76.05,16.07 76.89,16.45 C81.90,18.71 86.70,22.62 85.70,23.63 C85.25,24.08 84.58,23.99 84.20,23.45 C82.78,21.43 77.99,19.00 75.43,19.00 C73.98,19.00 71.15,20.28 69.14,21.85 C67.14,23.42 62.58,26.52 59.00,28.74 C55.42,30.96 51.60,33.03 50.50,33.35 C49.33,33.69 45.60,32.62 41.50,30.77 C32.22,26.58 22.65,25.83 16.63,28.81 C14.36,29.94 11.26,31.17 9.74,31.54 C7.44,32.11 7.08,31.95 7.61,30.58 C7.62,30.55 7.64,30.51 7.65,30.47 C7.25,31.87 11.43,29.48 17.66,24.75 ZM 65.41 16.28 C63.83,17.06 62.61,18.53 60.31,21.79 C62.62,18.52 63.82,17.06 65.41,16.28 ZM 69.80 15.28 C69.42,15.32 69.04,15.37 68.66,15.42 C68.69,15.42 68.71,15.42 68.74,15.41 C69.10,15.36 69.45,15.31 69.80,15.28 Z" fill="rgb(252,112,163)"/>
<path d="M 65.41 16.28 C63.82,17.06 62.62,18.52 60.31,21.79 C58.09,24.94 55.03,28.18 53.52,28.99 C50.90,30.39 50.67,30.33 48.64,27.64 C44.97,22.79 41.48,19.58 37.69,17.72 C41.48,19.29 45.28,21.65 47.26,23.88 C50.63,27.69 51.40,27.74 54.26,24.29 C60.27,17.01 61.43,16.26 67.75,15.53 C68.04,15.50 68.32,15.46 68.58,15.44 C67.25,15.64 66.28,15.86 65.41,16.28 ZM 7.68 30.38 C7.68,30.39 7.68,30.39 7.68,30.40 C7.79,30.05 7.93,29.62 8.11,29.10 C8.71,27.40 9.51,26.00 9.90,26.00 C10.29,26.00 12.90,23.75 15.71,21.00 C20.09,16.72 21.95,15.61 27.23,15.70 C24.16,15.81 23.04,16.68 18.55,21.04 C15.49,24.02 11.91,27.01 10.61,27.70 C9.30,28.38 7.99,29.59 7.68,30.38 ZM 81.90 19.28 C84.78,21.09 86.10,22.46 85.82,23.37 C85.93,22.56 84.27,20.91 81.90,19.28 ZM 85.66 23.66 C85.64,23.69 85.61,23.72 85.59,23.75 C85.20,24.13 84.58,23.99 84.20,23.45 C84.57,23.98 85.22,24.07 85.66,23.66 ZM 7.58 31.77 C7.87,31.93 8.51,31.84 9.63,31.57 C8.46,31.85 7.83,31.99 7.58,31.77 ZM 74.46 15.54 C74.87,15.66 75.29,15.80 75.73,15.98 C75.30,15.82 74.87,15.69 74.45,15.58 C74.45,15.57 74.46,15.56 74.46,15.54 ZM 9.79 31.53 C11.32,31.14 14.38,29.93 16.63,28.81 C14.37,29.93 11.30,31.15 9.79,31.53 Z" fill="rgb(251,183,210)"/>
<path d="M 87.93 27.71 C87.45,27.41 86.92,27.26 86.37,27.27 C85.88,27.19 85.42,27.26 85.05,27.45 C83.95,27.46 82.42,27.01 81.33,26.29 C77.38,23.71 72.18,25.94 64.78,33.39 C57.58,40.65 51.72,44.01 46.29,43.98 C42.22,43.97 31.83,41.54 17.72,37.31 C11.64,35.48 8.61,34.99 7.89,35.71 C7.22,36.38 7.14,37.64 7.54,39.28 C7.11,37.72 6.98,36.33 7.20,35.17 C7.64,32.90 18.78,32.41 26.69,34.32 C29.88,35.09 34.01,35.80 35.86,35.89 C37.71,35.98 40.04,36.49 41.05,37.02 C43.50,38.34 49.63,38.26 52.32,36.88 C53.52,36.26 55.62,34.72 57.00,33.46 C61.31,29.49 74.30,22.00 76.86,22.00 C78.21,22.00 80.79,23.12 82.59,24.50 C84.39,25.88 86.29,27.00 86.82,27.00 C87.07,27.00 87.47,27.27 87.93,27.71 ZM 90.69 33.43 C90.68,33.43 90.68,33.42 90.68,33.42 C90.61,32.69 90.48,32.00 90.29,31.36 C90.50,32.00 90.63,32.71 90.70,33.46 C90.70,33.45 90.69,33.44 90.69,33.43 Z" fill="rgb(250,79,118)"/>
<path d="M 7.58 31.77 C7.83,31.99 8.46,31.85 9.63,31.57 L 9.63 31.57 C9.67,31.56 9.70,31.55 9.74,31.54 C9.75,31.54 9.77,31.53 9.79,31.53 C11.30,31.15 14.37,29.93 16.63,28.81 C22.65,25.83 32.22,26.58 41.50,30.77 C45.60,32.62 49.33,33.69 50.50,33.35 C51.60,33.03 55.42,30.96 59.00,28.74 C62.58,26.52 67.14,23.42 69.14,21.85 C71.15,20.28 73.98,19.00 75.43,19.00 C77.99,19.00 82.78,21.43 84.20,23.45 C84.58,23.99 85.20,24.13 85.59,23.75 C85.67,23.65 85.68,23.64 85.70,23.63 C85.77,23.56 85.81,23.47 85.82,23.37 C85.83,23.36 85.83,23.35 85.83,23.34 C86.55,24.61 87.77,26.66 88.84,28.40 C88.90,28.51 88.97,28.62 89.04,28.73 C88.70,28.30 88.33,27.95 87.93,27.71 C87.47,27.27 87.07,27.00 86.82,27.00 C86.29,27.00 84.39,25.88 82.59,24.50 C80.79,23.12 78.21,22.00 76.86,22.00 C74.30,22.00 61.31,29.49 57.00,33.46 C55.62,34.72 53.52,36.26 52.32,36.88 C49.63,38.26 43.50,38.34 41.05,37.02 C40.04,36.49 37.71,35.98 35.86,35.89 C34.01,35.80 29.88,35.09 26.69,34.32 C18.78,32.41 7.64,32.90 7.20,35.17 C7.09,35.76 7.07,36.42 7.13,37.12 C6.90,35.28 7.00,33.44 7.41,31.55 C7.44,31.65 7.49,31.72 7.58,31.77 ZM 90.09 30.71 C90.54,31.74 90.77,32.67 90.81,33.75 C90.79,33.64 90.75,33.54 90.70,33.46 C90.63,32.71 90.50,32.00 90.29,31.36 C90.23,31.14 90.16,30.92 90.09,30.71 ZM 76.07 16.11 C75.96,16.06 75.84,16.02 75.73,15.98 C75.29,15.80 74.87,15.66 74.46,15.54 C74.46,15.53 74.46,15.53 74.46,15.52 C74.98,15.66 75.50,15.85 76.07,16.11 ZM 68.60 15.43 L 68.58 15.44 C68.33,15.46 68.07,15.49 67.80,15.52 C68.08,15.49 68.34,15.46 68.60,15.43 Z" fill="rgb(252,91,136)"/>
<path d="M 69.80 15.28 C69.45,15.31 69.10,15.36 68.74,15.41 C68.71,15.42 68.69,15.42 68.66,15.42 C68.65,15.43 68.63,15.43 68.61,15.43 L 68.60 15.43 C68.34,15.46 68.08,15.49 67.80,15.52 L 67.75 15.53 C61.43,16.26 60.27,17.01 54.26,24.29 C51.40,27.74 50.63,27.69 47.26,23.88 C45.28,21.65 41.48,19.29 37.69,17.72 C34.97,16.38 32.10,15.74 28.91,15.69 C28.29,15.68 27.73,15.68 27.23,15.70 C21.95,15.61 20.09,16.72 15.71,21.00 C12.90,23.75 10.29,26.00 9.90,26.00 C9.51,26.00 8.71,27.40 8.11,29.10 C7.93,29.62 7.79,30.05 7.68,30.40 C7.67,30.43 7.66,30.45 7.65,30.47 C7.64,30.51 7.62,30.55 7.61,30.58 C7.44,31.03 7.36,31.34 7.41,31.55 C7.05,33.23 6.93,34.86 7.07,36.50 C6.18,31.56 6.30,30.33 7.95,27.10 C10.52,22.06 17.01,16.37 21.68,15.07 C26.44,13.75 30.73,13.70 31.17,14.95 C31.35,15.48 33.08,16.08 35.01,16.29 C39.19,16.74 42.57,18.38 46.08,21.65 L 48.66 24.05 L 53.08 20.51 C57.60,16.90 65.19,14.00 70.13,14.00 C71.77,14.00 74.61,15.15 77.44,16.71 C77.26,16.62 77.07,16.53 76.89,16.45 C76.61,16.33 76.34,16.21 76.07,16.11 C75.50,15.85 74.98,15.66 74.46,15.52 C74.45,15.45 74.36,15.39 74.19,15.32 C73.59,15.08 71.75,15.07 69.80,15.28 ZM 8.91 43.24 C9.63,44.67 10.79,46.41 12.39,48.44 C10.70,46.34 9.65,44.82 8.91,43.24 ZM 90.09 30.71 L 90.08 30.70 C90.61,31.71 90.84,32.67 90.85,33.92 C90.84,33.86 90.83,33.80 90.81,33.75 C90.77,32.67 90.54,31.74 90.09,30.71 ZM 86.16 23.91 C86.04,23.70 85.93,23.51 85.83,23.34 C85.84,23.31 85.85,23.28 85.85,23.25 C85.95,23.41 86.02,23.56 86.08,23.71 C86.10,23.77 86.13,23.84 86.16,23.91 ZM 29.12 65.65 C29.49,65.99 29.85,66.34 30.22,66.68 L 30.22 66.68 C30.69,67.13 31.16,67.58 31.62,68.02 C30.79,67.23 29.95,66.44 29.12,65.65 ZM 7.93 40.56 C7.97,40.67 8.01,40.77 8.05,40.88 C8.07,40.96 8.08,41.05 8.10,41.13 C8.04,40.94 7.99,40.75 7.93,40.56 ZM 67.68 66.10 L 67.69 66.09 C65.53,68.08 63.16,70.23 60.57,72.57 C61.35,71.86 62.12,71.17 62.86,70.50 C62.97,70.40 63.08,70.30 63.19,70.20 C63.56,69.86 63.93,69.53 64.29,69.20 C65.47,68.13 66.60,67.09 67.68,66.10 C67.68,66.10 67.68,66.10 67.68,66.10 Z" fill="rgb(253,223,234)"/>
<path d="M 0.00 48.00 L 0.00 0.00 L 48.00 0.00 L 96.00 0.00 L 96.00 48.00 L 96.00 96.00 L 48.00 96.00 L 0.00 96.00 L 0.00 48.00 ZM 58.15 74.75 C84.64,50.94 89.45,45.32 90.62,36.75 C91.13,33.03 90.85,31.60 89.15,29.21 C87.99,27.59 86.61,25.11 86.08,23.71 C84.90,20.59 74.06,14.00 70.13,14.00 C65.19,14.00 57.60,16.90 53.08,20.51 L 48.66 24.05 L 46.08 21.65 C42.57,18.38 39.19,16.74 35.01,16.29 C33.08,16.08 31.35,15.48 31.17,14.95 C30.73,13.70 26.44,13.75 21.68,15.07 C17.01,16.37 10.52,22.06 7.95,27.10 C6.28,30.37 6.17,31.59 7.10,36.67 C8.27,43.16 9.02,44.57 15.05,51.61 C19.60,56.93 47.04,82.84 48.23,82.94 C48.64,82.97 53.10,79.29 58.15,74.75 Z" fill="rgb(253,253,253)"/>
</g>
</svg>